# xmcd
#
# Track frame offsets:
#	150
#	32568
#	65506
#	101061
#	135716
#	167208
#	200992
#	237069
#	270870
#	308032
#
# Disc length: 4566 seconds
#
# Revision: 0
# Processed by: cddbd v1.5.2PL0 Copyright (c) Steve Scherf et al.
# Submitted via: EasyCDDAExtractor 11.6.0.1
#
DISCID=8811d40a
DTITLE=Armin van Buuren - Imagine (The Remixes) cd 1
DYEAR=1900
DGENRE=
TTITLE0=Face to Face (Martin Roth Remix)
TTITLE1=Unforgivable Feat Jaren (First State Smooth Mix)
TTITLE2=In And Out Of Love Feat Sharon den Adel (The Blizzard Remix)
TTITLE3=Never Say Never Feat Jacqueline Govaert (Myon and Shane 54 Remix)
TTITLE4=Rain Feat Cathy Burton (W&W Remix)
TTITLE5=Fine Without You Feat Jennifer Rene (Sied van Riel Remix)
TTITLE6=What If Feat Vera Ostrova (Ohmna Remix)
TTITLE7=Hold On To Me Feat Audrey Gallagher (John O'Callaghan Remix)
TTITLE8=Imagine (Paul Miller Remix)
TTITLE9=Going Wrong (With DJ Shah Feat Chris Jones)(Alex M.O.R.P.H. B2B Woody 
TTITLE9=van Eyden Remix)
EXTD=
EXTT0=
EXTT1=
EXTT2=
EXTT3=
EXTT4=
EXTT5=
EXTT6=
EXTT7=
EXTT8=
EXTT9=
PLAYORDER=
